# xmcd CD database file
#
# Track frame offsets:
#	150
#	16612
#	37292
#	60710
#	90102
#	105632
#	134440
#	157765
#	191600
#	225457
#	244092
#	283805
#	315225
#
# Disc length: 4535 seconds
#
# Revision: 1
# Processed by: cddbd v1.5.2PL0 Copyright (c) Steve Scherf et al.
# Submitted via: CDex 1.70beta3
#
DISCID=9c11b50d
DTITLE=Various Artist - シネ・ジャズ～ジャズで聴くスクリーン・ラブ・テーマ～
DYEAR=1990
DGENRE=Jazz
TTITLE0=ロミオとジュリエット
TTITLE1=シャレード
TTITLE2=風のささやき
TTITLE3=酒とバラの日々
TTITLE4=白い恋人達
TTITLE5=男と女
TTITLE6=夜はやさし
TTITLE7=ゴッド・ファーザー 愛のテーマ
TTITLE8=思い出の夏
TTITLE9=みじかくも 美しく燃え
TTITLE10=いそしぎ
TTITLE11=危険な関係のブルース
TTITLE12=追憶
EXTD=YEAR: 1990
EXTT0=
EXTT1=
EXTT2=
EXTT3=
EXTT4=
EXTT5=
EXTT6=
EXTT7=
EXTT8=
EXTT9=
EXTT10=
EXTT11=
EXTT12=
PLAYORDER=
